<svg id="loader" data-name="Calque 3" xmlns="http://www.w3.org/2000/svg" viewBox="0 0 489 370.96">
  <path d="M484.31,137.92C457.38,72.25,374.8,47.05,312.84,77.05,256.27,104.78,200.5,157.31,133,138.33c82,26.38,143.09-55,219.16-65.55C467.19,60.3,531.38,197.39,424.7,263,384.84,262,338.19,268,311,300.2c26.27-24.56,65.59-26.82,99.63-23.41-14.83,16.16-25.14,37.4-27.47,59.36-46.68-2.5-82.23,29.79-119,53-57.23,34.48-140,59.64-196.52,12.89,58.95,63.33,159.44,23.14,225.44-9.84,33-14.51,65.38-41.91,102.23-42.37,7.66.75,12.62,6.76,16,13.13,3.71-6.71-3.44-17.47-9.95-21.3C407.38,257.14,528.54,245,484.31,137.92Z" transform="translate(-5 -64.51)"/>
  <path d="M110.52,309C111.73,351.17,85,392,85,392s30.22-40.08,31.71-87.45c-45.83-15.15-93.77-54.2-87.66-106.79,4-46.94,42.8-91.62,91.77-94.15,14.54-1.78,29.84,3.14,44.13,6.08C142.09,89.26,102.18,87,73.44,99.53-38.16,156.72-4.35,282.36,110.52,309Z" transform="translate(-5 -64.51)"/>
  <path d="M206.77,252.36c25.3-5.65,48.31-20.27,65.39-39.57-42.67,21.42-91.77,42-139.21,22.67C151.63,254.21,181.7,257.93,206.77,252.36Z" transform="translate(-5 -64.51)"/>
</svg>
